<svg xmlns="http://www.w3.org/2000/svg" viewBox="0 0 888 754"><defs><style>.cls-1 {fill: none; stroke: #FFF; stroke-linecap: round; stroke-linejoin: round; stroke-width: 8px;}</style></defs><title>Yahia Refaiea Signature</title><g><path class="cls-1" d="M211.91,130.43C195.62,84.7,235.77,13.37,288,15c43.06,1.36,46.66,49.84,39,85.44-8.57,39.74-67.4,108.6-62.72,126,49.38-36.62,117.92-92,132.85-85.11S313.78,330.09,241.27,427c-74,98.93-192,188.6-218.3,176.32C-6.51,589.49,50.75,476,113.36,416.39c151.27-144,420.89-216,495.57-180.77,17.5,8.25,21,20.14,17.4,29.56C599.81,334.36,258.59,261.44,211.91,130.43Z"/><path class="cls-1" d="M450.89,309.71c-2.3-14.34-11.74-15.19-19.92-13.83-9.16,1.52-49.68,28.07-41.36,41.36,4.83,7.7,27.84.57,47.49-13.11,19.86-13.83,24.17-27.74,36.34-34.26-9.27,19.84-40.08,31.88-32.86,48.42C447,353,489,332.07,495.8,325.47c15.55-15.13,74.75-80.83,66.24-83.72-7.9-2.69-66,83.87-72.85,97.19s-10,35.91,1.53,36.89c10.32.87,31.13-16.19,49.91-35.78s34.52-42.73,38.43-40.6c7.83,4.26-41,33.61-26.55,54,9.7,13.66,37,4.1,54.25-11.74,14.9-13.7,12.72-25.72,20.49-29.49,5.17-2.51-14.14,27-9.25,41.87,3.06,9.32,11.36,11.62,16.21,9.7"/><path class="cls-1" d="M654.12,292c-1.49-2.25-6-.25-6,3.5s4.28,6.5,7.83,3"/><path class="cls-1" d="M702.63,327.79c-10.72-8.68-23.48-4.42-31.66,3.07S658.72,361,679.4,362.38c27.51,1.86,41.62-40.21,47.49-38.67,6.59,1.72,7.18,20.13,15.06,31.4,4.87,6.95,15.83,8.94,20.94,5.87"/><path class="cls-1" d="M314,411.79c-.85-10,8-15.49,14.81-15.32s11,9.07,6.18,21.69c-15.71,40.78-53.84,70.06-50.1,74.31S381.87,376,408.85,394.6c19.74,13.62-92.26,95.66-85.62,97.87s34.55-31,50.89-30.47c11.92.38,13.11,16,9.54,24.69"/><path class="cls-1" d="M412.59,463.37c19.15-.26,40.57-12.57,35-20.75-5.36-7.85-34.68-.57-44.17,26.87-7.15,20.68,19.32,32.17,44.26,17.71s53.22-36.3,63.69-62.9c6.43-16.34,5.86-37.42,0-31.65-8.12,8-102.84,154-87.78,161.1,9.44,4.48,36.33-23.16,46.72-41.11,9-15.57,6.8-33.33,10.3-35.23,3-1.62-1,20.85,19.32,24,8.76,1.36,19.92-1.19,22-4.85"/><path class="cls-1" d="M561.7,479.37c-8.43-10.51-20-11.62-32-3.41-8.85,6-11.66,16.64-5.18,22.29,7.22,6.29,17.65,4.05,26.22-2.33,8.33-6.21,13.55-17.2,16.41-17.92s13.57,21,13.57,26.37"/><path class="cls-1" d="M602.93,466.3c-3.32,7.15-3.44,25.92,1.41,34.6"/><path class="cls-1" d="M610,447.71c-.68-1.88,4.66-3.29,5.83-.19a5.09,5.09,0,0,1-2.42,6"/><path class="cls-1" d="M642.51,469.24c16.59,2.81,27.22-2.05,28.46-7.41s-4.46-10.08-12-9c-14.37,2.09-28.7,22.68-26.52,31.71,2.68,11.07,12.9,16.34,25.28,15.06,7.18-.74,16.43-6.06,24.25-13.15,14.78-13.38,27.22-32,30.39-30.25,4.85,2.64-27.19,30.89-18.77,37.91,6.42,5.35,26.74-6.07,33.58-12.51,14-13.15,10.46-31.15,16.34-32,3.79-.56-15.84,30.08,22.8,46.62,30.64,13.1,96.33-10.75,106.05,46.3,6.63,39-59.75,64.85-190.13,56-113.53-7.71-395.92-28.6-486.13,22.12-43.43,24.42-71.49,85.11-59.23,118.47"/></g></svg>
