<svg width="18" height="18" viewBox="0 0 18 18" fill="none" xmlns="http://www.w3.org/2000/svg">
<path d="M9 12.75C9.39782 12.75 9.77936 12.908 10.0607 13.1893C10.342 13.4706 10.5 13.8522 10.5 14.25C10.5 14.6478 10.342 15.0294 10.0607 15.3107C9.77936 15.592 9.39782 15.75 9 15.75C8.60218 15.75 8.22064 15.592 7.93934 15.3107C7.65804 15.0294 7.5 14.6478 7.5 14.25C7.5 13.8522 7.65804 13.4706 7.93934 13.1893C8.22064 12.908 8.60218 12.75 9 12.75ZM9 7.5C9.39782 7.5 9.77935 7.65804 10.0607 7.93934C10.342 8.22064 10.5 8.60218 10.5 9C10.5 9.39782 10.342 9.77936 10.0607 10.0607C9.77936 10.342 9.39782 10.5 9 10.5C8.60218 10.5 8.22064 10.342 7.93934 10.0607C7.65804 9.77936 7.5 9.39782 7.5 9C7.5 8.60218 7.65804 8.22064 7.93934 7.93934C8.22064 7.65804 8.60217 7.5 9 7.5ZM9 2.25C9.39782 2.25 9.77935 2.40804 10.0607 2.68934C10.342 2.97064 10.5 3.35218 10.5 3.75C10.5 4.14782 10.342 4.52935 10.0607 4.81066C9.77935 5.09196 9.39782 5.25 9 5.25C8.60217 5.25 8.22064 5.09196 7.93934 4.81066C7.65804 4.52936 7.5 4.14782 7.5 3.75C7.5 3.35218 7.65803 2.97064 7.93934 2.68934C8.22064 2.40804 8.60217 2.25 9 2.25Z" fill="#353238" fill-opacity="0.84"/>
</svg>
